/* XPM */
static char *_bcca5ecee03488db3b11d24431de027sGrLHSUujeaVPYji[] = {
/* columns rows colors chars-per-pixel */
"50 50 75 1 ",
"  c None",
". c #3E3D39",
"X c #403F3B",
"o c #44433E",
"O c #464541",
"+ c #484742",
"@ c #4C4B47",
"# c #4F4D48",
"$ c #504F4A",
"% c #54524D",
"& c #575550",
"* c #595752",
"= c #5C5A55",
"- c #5F5D58",
"; c #605E58",
": c #65635C",
"> c #68655F",
", c #696660",
"< c #6D6A64",
"1 c #716E67",
"2 c #726F68",
"3 c #75726B",
"4 c #79766E",
"5 c #797770",
"6 c #7D7A72",
"7 c #817E76",
"8 c #817F78",
"9 c #85827A",
"0 c #89877F",
"q c #898780",
"w c #8E8B83",
"e c #908E86",
"r c #918F88",
"t c #949187",
"y c #95928A",
"u c #99968D",
"i c #9B988D",
"p c #999790",
"a c #9B9991",
"s c #9E9D9B",
"d c #A09D94",
"f c #A4A196",
"g c #A5A399",
"h c #A9A69A",
"j c #ABA99F",
"k c #A6A5A3",
"l c #AEACA3",
"z c #ADACAA",
"x c #B1AEA3",
"c c #B4B2A6",
"v c #B5B2A9",
"b c #B9B5AA",
"n c #BDB9AD",
"m c #B6B5B3",
"M c #BEBCB1",
"N c #BDBCBA",
"B c #C2BFB3",
"V c #C0BFBD",
"C c #C5C2B6",
"Z c #C6C4B9",
"A c #C9C6BB",
"S c #CDCABE",
"D c #C5C5C2",
"F c #C8C7C5",
"G c #CECCC1",
"H c #CDCCC9",
"J c #D2CEC3",
"K c #D5D2C6",
"L c #D7D3C8",
"P c #D9D6CA",
"I c #DCDACE",
"U c #DDDCD3",
"Y c #E0DDD1",
"T c #E1E0D6",
"R c #E4E3D9",
/* pixels */
"                                                  ",
"                                                  ",
"                                                  ",
"                                                  ",
"                        BBA                       ",
"                      SnbCACJ                     ",
"                     BbBASSSCA                    ",
"                   AbnCSKYPSAACS                  ",
"                 ABBBAJPYIIIKSSBAS                ",
"                BxBBJPYYIYYYYPJSSBS               ",
"              CBBBSJBSYLPSKABSSKSSABS             ",
"             BbBASPK77VrBttaw8dPYSSSAC            ",
"           CbnCSIYIP6,v<dl1eu;VYIIPSSZCZ          ",
"         SbbCAKIIIIL74qq7dd8e<tIIIYIKSSZZS        ",
"        MbBSJIYYIYYLlvbBxxSBbbbLYYIYIIKSSCZ       ",
"       vBJPJSSSSSSSSGJJGJJJSJSJSSSSSSSSKPPSC      ",
"       CPIIKLPLPLLLLKKKKLKKKKKLKKKKPKLKPIIPG      ",
"        KKSKSSKSSKJJJJKJJKKJKGKKJJKGKGGKJKP       ",
"         SIIUIIIIIYIIIPIIIIUIUPIUUIIIIIIIP        ",
"         PKGKSZccxBSJJJBvvvBGGGSbcccAJGGKU        ",
"          AASZx%XX8BSGCyoo@gZGAB1Xo=bASZC         ",
"          SSSAb@XOwGGASy.o%lGSZA1oo=BSSZS         ",
"           IBf:.+;;BKbr$o%-5KAl7@%=%9PCh          ",
"           TCt@o*,1BPb7X%><5ISh>%:>:0TZi          ",
"           RCy@o-23AIc7o=128UJh>*<1<eRCi          ",
"           RCt@o-55AIc6o=340USh>*212eRCi          ",
"           RCt@o-57AUc6o=460TSh>*343yRCi          ",
"           RBt@o;58SIc7o=570USh>=364uRZi          ",
"           RBt@o;79SIc6o=67eUGg,=474uRCi          ",
"           RBy@o;89GIc6o=78eTGg,=574iRZi          ",
"           RBt@o-89GIc6o=68eTGg>=575aRZi          ",
"           RCt@o-89FIc7o=68eTGg,=565pRCi          ",
"           RCt@o;68FIc6o=67wUJg,=363pRCi          ",
"           RCt@o;57GIc7o=460UGg,=353yRCi          ",
"           RCt@o-56AIc6o=340YJh>=151yRCi          ",
"           RBt#o-25AIc6o*229YSh>&<1<eRCi          ",
"           YBy$o;11BPx7X*<<6ISh>&><>wUCd          ",
"          RIBd:X%:7KSBt#@:>iUAx7%;:;lIBhe         ",
"          RIBh<.$;7YKBu%+;;gYAc9%===MUBhe         ",
"          PSACfo+*0KSCB7o%*jLSZb>%%=MKSCC         ",
"          KKKKSy0ibPKKLBeyiALKKKjyraJLLLK         ",
"         PKKKKKKPKKKKKKKLLLJKKKKKLLLJKKJKK        ",
"        PKKKKKKKKKKKKJKKJJKKKJKKJKJKJLJLKK        ",
"       UPPKKKKKKKKKPLLLLLLLLLLKKLLLKKLLJKKP       ",
"       JJJGSSSAAZZVVBVVZVVBVZZVCZZZAAGSGGGJK      ",
"        HHHFDVNmmvlkkkdsddddsgkkzzmmNVDFHHH       ",
"                                                  ",
"                                                  ",
"                                                  ",
"                                                  "
};
