/* XPM */
static char *result[] = {
/* columns rows colors chars-per-pixel */
"50 50 230 2 ",
"   c #0A0B0B",
".  c #050707",
"X  c #0E1112",
"o  c #1C1C1B",
"O  c #141717",
"+  c #23211E",
"@  c #171F22",
"#  c #1A2225",
"$  c #1C272C",
"%  c #1E2C33",
"&  c #282826",
"*  c #332E2A",
"=  c #36312E",
"-  c #252D33",
";  c #28333B",
":  c #383635",
">  c #2F302F",
",  c #423E3D",
"<  c #503E29",
"1  c #524537",
"2  c #6F4E2D",
"3  c #2A3C49",
"4  c #353F45",
"5  c #37434C",
"6  c #2E4252",
"7  c #354B5C",
"8  c #384854",
"9  c #2C404F",
"0  c #364E61",
"q  c #3A5264",
"w  c #3B566A",
"e  c #3D586E",
"r  c #375062",
"t  c #3E5B72",
"y  c #484848",
"u  c #524C48",
"i  c #5B554C",
"p  c #5A5955",
"a  c #46525B",
"s  c #665A4A",
"d  c #6A594F",
"f  c #786956",
"g  c #6D6654",
"h  c #425A6D",
"j  c #445766",
"k  c #415E75",
"l  c #535D65",
"z  c #57636B",
"x  c #456075",
"c  c #44637B",
"v  c #4A667B",
"b  c #4A6275",
"n  c #50697E",
"m  c #6A6766",
"M  c #626D75",
"N  c #787876",
"B  c #75766F",
"V  c #966B3A",
"C  c #AC7A34",
"Z  c #887755",
"A  c #977454",
"S  c #8E6D48",
"D  c #A87A5C",
"F  c #907563",
"G  c #A17F65",
"H  c #B48134",
"J  c #C68D33",
"K  c #D59C3B",
"L  c #CC943B",
"P  c #DCA138",
"I  c #E8AD3B",
"U  c #EBB33F",
"Y  c #9D8055",
"T  c #A88545",
"R  c #BA9347",
"E  c #A78956",
"W  c #B38B51",
"Q  c #958B7B",
"!  c #938972",
"~  c #A68C62",
"^  c #B18875",
"/  c #A79773",
"(  c #BA9979",
")  c #B48D6C",
"_  c #BBA37D",
"`  c #C69A48",
"'  c #D39F44",
"]  c #C59C52",
"[  c #DAA344",
"{  c #DAA749",
"}  c #C9A557",
"|  c #D7AA57",
" . c #DBB758",
".. c #CCA24A",
"X. c #E5AE45",
"o. c #E3AD4D",
"O. c #E6B14F",
"+. c #E9B34D",
"@. c #EBB446",
"#. c #E7B150",
"$. c #E9B452",
"%. c #EBBB55",
"&. c #E9B758",
"*. c #EABA5B",
"=. c #E4B75A",
"-. c #C59E67",
";. c #CAA565",
":. c #D5AA66",
">. c #DBB368",
",. c #C9AC78",
"<. c #CBB77D",
"1. c #D3B376",
"2. c #EABB61",
"3. c #ECBF6C",
"4. c #E5B864",
"5. c #E7BC71",
"6. c #EDC55B",
"7. c #F1C559",
"8. c #F5CB5B",
"9. c #F6CB57",
"0. c #F9D45E",
"q. c #F7D05D",
"w. c #DFC473",
"e. c #ECC66A",
"r. c #FAD661",
"t. c #FADC6B",
"y. c #F9D666",
"u. c #EBC374",
"i. c #EAC576",
"p. c #FADC75",
"a. c #F3CE6D",
"s. c #4B6A83",
"d. c #4B6D8A",
"f. c #466680",
"g. c #516F86",
"h. c #4D718E",
"j. c #56748B",
"k. c #4E7392",
"l. c #557996",
"z. c #557B9B",
"x. c #5A7F9C",
"c. c #537794",
"v. c #647785",
"b. c #567FA1",
"n. c #5E819E",
"m. c #698296",
"M. c #5B83A4",
"N. c #5D86A9",
"B. c #5F89AC",
"V. c #628BAE",
"C. c #6588A5",
"Z. c #628DB1",
"A. c #6893B8",
"S. c #7598B6",
"D. c #888888",
"F. c #95968C",
"G. c #8D9599",
"H. c #939392",
"J. c #9D9B9A",
"K. c #908B88",
"L. c #BA9A86",
"P. c #A29F9E",
"I. c #A29B8C",
"U. c #9FA388",
"Y. c #B8AA86",
"T. c #ABA397",
"R. c #A9AA89",
"E. c #8A9EA8",
"W. c #93ACBD",
"Q. c #A8A8A8",
"!. c #B5B5B6",
"~. c #BCBBBB",
"^. c #BCB6B2",
"/. c #B3AFA9",
"(. c #CCB390",
"). c #C6B8A6",
"_. c #D0BFAB",
"`. c #D7C29A",
"'. c #CFC185",
"]. c #EDCB89",
"[. c #F7DA87",
"{. c #E8CA95",
"}. c #E9D298",
"|. c #F6DE92",
" X c #F2D49D",
".X c #EACF89",
"XX c #F8E295",
"oX c #D4C4AA",
"OX c #C8C3BD",
"+X c #DCD2BB",
"@X c #EBD3A7",
"#X c #F1D6A3",
"$X c #F2DCA6",
"%X c #EBD9B9",
"&X c #EED9B1",
"*X c #F6E5B9",
"=X c #F6E4A8",
"-X c #BDC0C2",
";X c #C5C3C3",
":X c #C9C6C5",
">X c #CDCCCB",
",X c #CECAC4",
"<X c #D2CECC",
"1X c #D5CEC3",
"2X c #DAD4C8",
"3X c #D4D3D2",
"4X c #D9D6D4",
"5X c #DCDBDC",
"6X c #DBD8D5",
"7X c #E2DFDE",
"8X c #E5DDD5",
"9X c #E0D4CB",
"0X c #F5E8CB",
"qX c #E9E3D8",
"wX c #F2EAD6",
"eX c #EDE1CA",
"rX c #DFDFE0",
"tX c #E0DFE1",
"yX c #DFE2E4",
"uX c #E3E3E3",
"iX c #E9E6E5",
"pX c #ECECEC",
"aX c #E9E9E8",
"sX c #F1EEE8",
"dX c #F2F1EE",
"fX c #F3F0E4",
"gX c #F3F3F3",
"hX c #F8F7F7",
"jX c #FDFCFC",
"kX c #F8F8F8",
/* pixels */
"                                      6X/./ Z V  ...V Z / ).6                                       ",
"                                  1X_ E T R ` ..=.o.` R T H E _ +                                   ",
"                              eXw.` .. .=.%.%.%.+.$.$.$.+.O...H ` (.e                               ",
"                            =Xw.}  .6.6.%.4.:.>. .$.O.O.O.+.%. .| ' | &                             ",
"                          $Xq.8.8.6.e.}.+XqX4X2X1X_.(.>.#.O.O.O.#.#.#.&. X                          ",
"                        =Xy.q.8.e.}.wXgXdXrX5XrXuXuX6X_.(.| O.O.#.#.O.#.&.#                         ",
"                      0Xy.q.q.e.2XdXaX3X;X-XOX:X:X:X<X<X-XT. .#.O.#.$.#.&.4.0X                      ",
"                      |.0.0.q.%XpX5X;X>XrXaXdXpXiX7X<X;X;X!.Y. .O.O.$.#.&.2.{.d                     ",
"                      t.r.0..XqX4X;X4XiXgXgXgXgXgXgXpX8X;X!.Q.(.$.$.$.$.&.2.3.0                     ",
"                      r.0.t.9X6X~.3XpXgXhXgXiXiXgXjXgXpX5X!.P./.} | $.$.&.2.3.*                     ",
"                     .q. .(.>X!.^.iXgXhXiX).^ ^ (.8XkXhXaX<XI.J.B F D R ] } ;._.                    ",
"                     .f i D.!.Q.;XpXgXpXL.^ F d S G gXkXgX5XP.D.N g , y u p p K.                    ",
"                     .y y D.!.P.<XpXgXiXD A < = 2 V 7XjXkXiXQ.H.K.m , , 4 1 y D.                    ",
"                     .g p H.>XT.).pXhXhXL.D S d D ^ dXjXkXuX/./.H.m u i d f f P.                    ",
"                     .6.=.<.3X/.A ).iXhX8XL.D -.^ 9XjXjX8X(.^.:XQ ~ ] { { =.4.@                     ",
"                     X0.r.t.2X3XG V (.@X0XeXoX(.eX0X&X{.-.L.<X,X} o.$.$.&.2.3.@                     ",
"                    |.0.r.q.}.rX>XF D 5.u.i.[.[.].3.3.;.-.>X4X(.{ #.$.$.&.2.3.#                     ",
"                    |.r.r.r.q.+XtX:XG W :.3.3.u.5.>.;.L.>X7X_.:.[ O.#.$.&.2.3.#                     ",
"                    |.r.r.r.q.e.1XtX4X).( ( -.-.-.L.).4XtX,X;.' [ o.#.$.&.*.3.#                     ",
"                    |.r.r.0.q.q.5._.4XtX4X<X:X:X3X5XtX4X).-.' [ o.$.#.$.&.2.3.#                     ",
"                    |.r.r.0.q.9.2.*.1.oX1X6X5X5X6X,X).-.' ' ' X.o.$.$.$.&.2.3.                      ",
"                    |.r.r.0.q.q.8.*.+.{ { :.,.,.;.| ' ' ' o.[ o.#.O.o.$.&.*.3.                      ",
"                    p.r.r.r.q.9.9.:.`.].4.o.[ [ [ { >.{.+X1.O.O.#.#.#.$.&.2.3.                      ",
"                    |.r.r.0.q.9.8.} ^.sXsXeX&X@X%XwXsXpX2X:.O.O.#.#.#.$.&.2.e.                      ",
"                    .Xr.r.0.0.9.7.6.,.<X3XgXgX5XuXdXiXT.,.#.#.#.#.#.#.$.&.2.>.Y.a                   ",
"                     .'.q.r.0.q.7.7.7.i.oXeX5X:X9X9X(.;.#.#.#.#.#.#.#.#.*.| Z M y                   ",
"                     .S._ 6.0.9.9.7.7.%.%.e.u.i.5.4.#.O.#.O.#.#.#.#.+.+.] f q z 5                   ",
"                    '.S.A.F._  .=.%.%.%.%.$.+.+.#.#.O.o.O.o.o.o.{ [ ` T p r p W                     ",
"                    t.w.E.A.m.m N D.Q Q Q ~ ~ ~ ~ E D E D A Z Z g p u a 7 p R X.].                  ",
"                   .t.t.w.U.8 5 b l.B.B.N.b.z.h.l.j.h.f.c k t t r 8 - ; g ` X.I +.                  ",
"                  t.9.8.t.q.B b e n.B.N.M.b.k.h.k.d.d.f.f.t f.t 7 6 : i ' X.K I U &                 ",
"                  0.@.6.t.y.F.n.n.B.Z.M.l.j.s.f.c k t e t t t e w r 7 f X.+.L J I .                 ",
"                   .U r.t.t.U.Z.Z.Z.Z.N.z.n.M.s.j j x s.v e c c x e q f @.@.P J I e.                ",
"                 .9.I t.t.t.R.A.Z.Z.Z.N.c.n.f.3 q 7 ; e v e c t e w w Y @.+...H P *.                ",
"                 .6.P r.t.r.R.B.A.Z.Z.V.z.n.0 e 9 6 6 6 v t c c t e w Y U X.P H P +.                ",
"                 .{ T ..q.0.R.A.A.Z.V.V.l.n.k 3 w r ; w x t f.c k k k f P H V 2 J @.                ",
"                 .} M G.U./ ! B.Z.A.V.M.l.j.z.q 6 6 7 v h c s.c t w w i s i y 4 H $.w               ",
"                 .{ m.S.A.V.n.Z.V.M.M.M.z.j.s.s.v c x x c c c k t c h q j w q 8 C =.s               ",
"                 . .F.V.B.n.m.V.V.V.M.z.k.k.h.d.c c c c c c c c c k w j 7 r j i H 4.s               ",
"                [.I f m.g.v.C.B.N.z.k.h.h.d.s.f.c c k t e t c c t t e x 8 5 8 1 C :.                ",
"                f 1 & 8 M m.n.n.z.l.k.h.d.s.f.f.v b k k x x c k k k h j j a - + 1 f                 ",
"                u * o X 8 n s.v v v c c c x c v b h e e w e e e j q 0 q 8 ; X o * u 5               ",
"              :X1 * + . . ; q b k e t e w r 0 q j a r 7 7 0 7 7 7 7 8 8 -     + * 1 ;               ",
"              J.: > & o     D./.H.M 7 7 7 6 8 7 8 5 6 9 3 3 3 5 l D.Q.D.    o & * = J.              ",
"              H.= = * + o : >X      z % % $ & + y y # # # # $ a 3     >X: + & * * = H.              ",
"              ~.m p = o > O         J.3 ; $ # O P.Q.O O # $ % G.        :X> o = p m ~.              ",
"                    B y G.          -X3 # @ O ,     4 O O # - -X          H.y B                     ",
"                                    ~.o . . O m.    N   .   o !.g                                   ",
"                                    N # O   O H.    H.O   X o B g                                   ",
"                                      & o > N u       N > o # m g                                   "
};
