/* XPM */
static char *_7886de957be42dfe8bcce1af6562219nvYAqHUUFMzyiPsg[] = {
/* columns rows colors chars-per-pixel */
"50 50 231 2 ",
"   c black",
".  c #010000",
"X  c #000100",
"o  c #010101",
"O  c #030000",
"+  c #000200",
"@  c #000300",
"#  c #000002",
"$  c #010002",
"%  c #000102",
"&  c #030002",
"*  c #030102",
"=  c #010302",
"-  c #000203",
";  c #020202",
":  c #040000",
">  c #050000",
",  c #050100",
"<  c #040001",
"1  c #050001",
"2  c #060000",
"3  c #070000",
"4  c #060100",
"5  c #040300",
"6  c #040002",
"7  c #070302",
"8  c #000400",
"9  c #000500",
"0  c #000501",
"q  c #000600",
"w  c #000700",
"e  c #000601",
"r  c #000702",
"t  c #000603",
"y  c #010703",
"u  c #050500",
"i  c #070400",
"p  c #070602",
"a  c #060702",
"s  c #000004",
"d  c #010004",
"f  c #000104",
"g  c #000005",
"h  c #000105",
"j  c #030004",
"k  c #020005",
"l  c #030005",
"z  c #000204",
"x  c #000304",
"c  c #000007",
"v  c #010007",
"b  c #000107",
"n  c #030106",
"m  c #070005",
"M  c #050006",
"N  c #070006",
"B  c #000404",
"V  c #010705",
"C  c #000506",
"Z  c #010506",
"A  c #000407",
"S  c #000507",
"D  c #080000",
"F  c #090000",
"G  c #0B0000",
"H  c #080002",
"J  c #0A0002",
"K  c #0D0000",
"L  c #0D0101",
"P  c #0E0000",
"I  c #0D0301",
"U  c #0E0600",
"Y  c #0A0005",
"T  c #080204",
"R  c #080006",
"E  c #080007",
"W  c #0A0404",
"Q  c #000800",
"!  c #000901",
"~  c #040800",
"^  c #000008",
"/  c #000009",
"(  c #000109",
")  c #00010B",
"_  c #00030B",
"`  c #040108",
"'  c #000508",
"]  c #000609",
"[  c #060409",
"{  c #0E0008",
"}  c #000808",
"|  c #110101",
" . c #150301",
".. c #100501",
"X. c #170600",
"o. c #160307",
"O. c #150704",
"+. c #1A0202",
"@. c #190600",
"#. c #1A0406",
"$. c #110803",
"%. c #140907",
"&. c #1F0D03",
"*. c #190A07",
"=. c #130A0B",
"-. c #1D0908",
";. c #0F0311",
":. c #290602",
">. c #230D02",
",. c #220B05",
"<. c #240805",
"1. c #250C07",
"2. c #280D02",
"3. c #350D0D",
"4. c #381A1A",
"5. c #4C1B0D",
"6. c #4D1812",
"7. c #4C1518",
"8. c #541317",
"9. c #521514",
"0. c #561B15",
"q. c #591A11",
"w. c #5A1B12",
"e. c #591917",
"r. c #591719",
"t. c #551D1E",
"y. c #581818",
"u. c #6B1F1F",
"i. c #73221E",
"p. c #7A2119",
"a. c #7D241C",
"s. c #7E241C",
"d. c #701E22",
"f. c #6B2122",
"g. c #6F2323",
"h. c #712321",
"j. c #712122",
"k. c #762021",
"l. c #712027",
"z. c #7E2225",
"x. c #792427",
"c. c #7B2727",
"v. c #782925",
"b. c #7B242C",
"n. c #802024",
"m. c #862E22",
"M. c #8C2826",
"N. c #8A2628",
"B. c #8E252C",
"V. c #83292B",
"C. c #8C2C2D",
"Z. c #932724",
"A. c #982427",
"S. c #91242A",
"D. c #9A272C",
"F. c #9A2B31",
"G. c #9E2A33",
"H. c #9B2C33",
"J. c #9F2C33",
"K. c #9F2B34",
"L. c #9C2D36",
"P. c #9E2B38",
"I. c #9E3033",
"U. c #A92B2F",
"Y. c #A02331",
"T. c #A32B34",
"R. c #A12837",
"E. c #A52E34",
"W. c #AB2D39",
"Q. c #B72B34",
"!. c #B22F37",
"~. c #B82D32",
"^. c #A63030",
"/. c #A43033",
"(. c #AD3536",
"). c #B73237",
"_. c #B83137",
"`. c #B83636",
"'. c #BC3434",
"]. c #B43836",
"[. c #B7343A",
"{. c #B4363A",
"}. c #B6373E",
"|. c #B03D38",
" X c #B7393C",
".X c #C3303A",
"XX c #C5363A",
"oX c #C6373B",
"OX c #C03B3E",
"+X c #D13131",
"@X c #D33335",
"#X c #DD3F34",
"$X c #DB3738",
"%X c #D43C3B",
"&X c #D33F3D",
"*X c #DF3B3A",
"=X c #DC3F3A",
"-X c #D9383D",
";X c #DE3B3C",
":X c #DB3D3C",
">X c #DD3D3F",
",X c #E23A39",
"<X c #E63F39",
"1X c #E13B3F",
"2X c #E53B3C",
"3X c #E43E3E",
"4X c #E63E3E",
"5X c #EF3D3B",
"6X c #EF3C3F",
"7X c #F23A3C",
"8X c #D5423A",
"9X c #DA403E",
"0X c #DB403E",
"qX c #DD463D",
"wX c #E34136",
"eX c #E0413D",
"rX c #D33E40",
"tX c #D13C42",
"yX c #D43D44",
"uX c #DC3841",
"iX c #DE3B40",
"pX c #DD3C41",
"aX c #DD3F40",
"sX c #E23940",
"dX c #E53A40",
"fX c #E33D41",
"gX c #E23B45",
"hX c #D44243",
"jX c #D94042",
"kX c #DD4240",
"lX c #D9424B",
/* pixels */
"f O Y ) H y M O O O O O O O O O O O O O O O O O O O O O O O O O O O O O O O O O O y O O y O ! O O O ",
"O 5 M ' H 5 5 p Y 5 p 5 p M 5 p 5 5 p M 5 p M p 5 5 7 7 p 5 p M 7 7 p 5 p M 5 p 5 B M W H ..O f O O ",
"O O O 4.C.J.P.G.F.F.F.F.F.G.F.F.F.G.F.F.F.F.F.F.F.F.F.F.F.F.F.F.F.F.F.F.F.F.F.F.G.L.Y.E.Y.V.<.y O O ",
"` 5 L j.,X7XiXeX3X3XeXfX1XeX3X3X3X3XeX1X3X3XfXeXfX3X3X3X3X3X3X1X3X3XeX1X1X3X3X3X0X0XfX3XdX&X6.p O O ",
"B B O v.wX+XM.m.N.N.N.N.N.N.N.N.N.N.N.N.N.N.N.N.N.N.N.N.N.N.N.N.N.N.N.N.N.N.N.N.A.S.B.Z.%XyX8.M O O ",
"H f O x.jXL.=.y O y O O O f O O O O f O y O O O O B O O O O y O y O O O O O O O y O B 2.|.hXe.O O O ",
"5 f O z.1XR.;.f f O O f B O f O O O B O O f O f f O f O O f O O O f f O B f O f y ) f :.'.-Xq.! O O ",
"O f y s.wX^.L H O O O O O O O O O O O O O O O O O O O O O O O O O O O O O O O O 5 M f ,.tXuXy.) O O ",
"O O O x.>X/.L O O O O O O O O O O O O O O O O O O O O O O O O O O O O O O O O O O O O -.XX:Xr.f O O ",
"f O O z.>X/.L O O O O O O O O O O O O O O O O O O O O O O O O O O O O O O O O O f O f -.XX>Xr.f O O ",
"O O O z.>XE.L f O O O O O O O O O O O O O O O O O O O O O O O O O O O O O O O O O O O -.XX:X0.f O O ",
"O O O z.aX/.L O O O O O O O O O O O O O O O O O O O O O O O O O O O O O O O O O f O O *.XX:Xr.f O O ",
"f O O z.>X/.I f O O O O O O O O O O O O O O O O O O O O O O O O O O O O O O O O O O O -.XX:Xr.f O O ",
"O y O z.>X/.H O O O O O O O O O O O O O O O O O O O O O O O O O O O O O O O O O f O f -.XX:Xr.f O O ",
"O O O z.>X/.H O O O O O O O O O O O O O O O O O O O O O O O O O O O O O O O O O O O O -.XX:Xr.f O O ",
"f O O x.>X/.L O O O O O O O O O O O O O O O O O O O O O O O O O O O O O O O O O f O f -.XX:X0.f O O ",
"O y O z.aX/.H O O O O O O O O O O O O O O O O O O O O O O O O O O O O O O O O O f O f -.XX:Xr.f O O ",
"O O O z.aX/.L f O O O O O O O O O O O O O O O O O O O O O O O O O O O O O O O O O O O -.XX:Xr.f O O ",
"O O O z.iXE.L O O O O O O O O O O O O O O O O O O O O O O O O O O O O O O O O O f O f -.XX:Xr.f O O ",
"f O O z.>X/.L f O O O O O O O O O O O O O O O O O O O O O O O O O O O O O O O O O O O -.XX:X0.f O O ",
"O O O x.>X/.L O O O O O O O O O O O O O O O O O O O O O O O O O O O O O O O O O f O O -.XX>Xy.f O O ",
"f O O z.>X/.L O O O O O O O O O O O O O O O O O O O O O O O O O O O O O O O O O O O f -.XX>Xr.f O O ",
"O y O z.aX/.H O O O O O O O O O O O O O O O O O O O O O O O O O O O O O O O O O f O f -.XX:X0.f O O ",
"O O O z.aX/.L f O O O O O O O O O O O O O O O O O O O O O O O O O O O O O O O O O O O -.XX%Xr.f O O ",
"O O O z.>X/.H O O O O O O O O O O O O O O O O O O O O O O O O O O O O O O O O O f O f -.XX:Xr.f O O ",
"f O O z.>X/.7 O O O O O O O O O O O O O O O O O O O O O O O O O O O O O O O O O O O O -.XX>Xy.f O O ",
"O O O z.aX/.L O O O O O O O O O O O O O O O O O O O O O O O O O O O O O O O O O f O O -.XX:Xy.f O O ",
"f O O x.>X/.L f O O O O O O O O O O O O O O O O O O O O O O O O O O O O O O O O O O O *.XX:Xy.f O O ",
"O O O z.>X/.L O O O O O O O O O O O O O O O O O O O O O O O O O O O O O O O O O f O f -.XX:Xy.f O O ",
"O O O z.>X/.H O O O O O O O O O O O O O O O O O O O O O O O O O O O O O O O O O O O O -.XX:Xy.O O O ",
"f O O x.aX/.L f O O O O O O O O O O O O O O O O O O O O O O O O O O O O O O O O f O f -.XX:Xy.f O O ",
"O O O z.aX/.L O O O O O O O O O O O O O O O O O O O O O O O O O O O O O O O O O O O O -.XX>Xy.f O O ",
"f O O x.>X/.L O O O O O O O O O O O O O O O O O O O O O O O O O O O O O O O O O f O O -.XX>X0.f O O ",
"O O O z.>X/.L O O O O O O O O O O O O O O O O O O O O O O O O O O O O O O O O O O O f -.XX>Xy.f O O ",
"O O O z.aXE.H O O O O O O O O O O O O O O O O O O O O O O O O O O O O O O O O O f O f -.XX:Xy.f O O ",
"O y O z.aX/.L f O O O O O O O O O O O O O O O O O O O O O O O O O O O O O O O O O O O -.XX:Xr.f O O ",
"f O O z.aX/.L O O O O O O O O O O O O O O O O O O O O O O O O O O O O O O O O O f O f -.XX:Xy.O O O ",
"O O O z.>X/.L f O O O O O O O O O O O O O O O O O O O O O O O O O O O O O O O O O O O -.XX:Xy.f O O ",
"f O O z.>X/.H O O O O O O O O O O O O O O O O O O O O O O O O O O O O O O O O O f O O -.XX:Xy.f O O ",
"O O O x.>X/.L O O O O O O O O O O O O O O O O O O O O O O O O O O O O O O O O O O O O *.XX>Xr.f O O ",
"O M [ i.qXW.{ B O O O O O O O O O O O O O O O O O O O O O O O O O O O O O O O O O ` ) <.XXdXq.O O O ",
"O 5 5 a.#XU.| ! O O O O O O O O O O O O O O O O O O O O O O O O O O O O O O O O y ) ' ,.`.:X0.O O O ",
"y f O c.0XE. .O O O O O O O O O O O O O O O O O O O O O O O O O O O O O O O O O O 5 f >. XlXt.) O O ",
"f ) f b.sX.Xl.j.u.u.u.u.u.u.u.u.u.u.u.u.u.u.u.u.u.u.u.u.u.u.u.u.u.u.u.u.u.u.u.u.k.u.f.p.@XuX9.O O O ",
"O ! p i.3X3XrXiX;X;X;X:X:X;X;X;X:X;X;X;X;X;X;X:X:X;X;X;X>X:X:X;X:X;X;X;X:X;X;X;X:XaX8X8X5X0X5.! O O ",
"H H H 7.(.].}.~._._._._._._._._._._._._._._._._._._._._._._.~._._._._._._._._._._.{.!.{.Q.K.3.H O O ",
"B y f B @.I $.O.$.$.$.$.$.$.$.$.$.$.$.$.$.$.$.$.$.$.$.$.$.$.$.$.$.$.$.$.$.$.$.$.| %.#.*.+.o.} ) O O ",
"O p Y _ 5 O f O O O O O O O O O O O O O O O O O O O O O O O O O O O O O O O O O O O O O y O y H O O ",
"O O O O O O O O O O O O O O O O O O O O O O O O O O O O O O O O O O O O O O O O O O O O O O O O O O ",
"O O O O O O O O O O O O O O O O O O O O O O O O O O O O O O O O O O O O O O O O O O O O O O O O O O "
};
