/* XPM */
static char *_acfed92cbdb44cfb5f0e389a8d8d04eDsanaL1xHOEVzYDI[] = {
/* columns rows colors chars-per-pixel */
"50 50 239 2 ",
"   c None",
".  c black",
"X  c #000100",
"o  c #000400",
"O  c #000700",
"+  c #000800",
"@  c #000D00",
"#  c #000F00",
"$  c #001100",
"%  c #001200",
"&  c #001300",
"*  c #001500",
"=  c #001600",
"-  c #002100",
";  c #002200",
":  c #002400",
">  c #002C00",
",  c #002E00",
"<  c #003000",
"1  c #003600",
"2  c #003800",
"3  c #003C00",
"4  c #004300",
"5  c #004B00",
"6  c #004D00",
"7  c #005000",
"8  c #005100",
"9  c #005300",
"0  c #005400",
"q  c #005600",
"w  c #005800",
"e  c #005900",
"r  c #005B00",
"t  c #005C00",
"y  c #005D00",
"u  c #005E00",
"i  c #005F00",
"p  c #164C16",
"a  c #164D16",
"s  c #164E16",
"d  c #164F16",
"f  c #155215",
"g  c #155315",
"h  c #165016",
"j  c #165116",
"k  c #165216",
"l  c #165316",
"z  c #155415",
"x  c #155515",
"c  c #155615",
"v  c #155715",
"b  c #135F13",
"n  c #155815",
"m  c #145A14",
"M  c #145B14",
"N  c #145C14",
"B  c #145D14",
"V  c #006000",
"C  c #006100",
"Z  c #006500",
"A  c #006800",
"S  c #006900",
"D  c #006E00",
"F  c #006F00",
"G  c #007000",
"H  c #007100",
"J  c #007300",
"K  c #007A00",
"L  c #007C00",
"P  c #007D00",
"I  c #0F7A0F",
"U  c #0F7C0F",
"Y  c #0E7E0E",
"T  c #0F7E0F",
"R  c #0F7F0F",
"E  c #136013",
"W  c #136113",
"Q  c #136213",
"!  c #136313",
"~  c #126512",
"^  c #136413",
"/  c #126612",
"(  c #116B11",
")  c #126912",
"_  c #126A12",
"`  c #126B12",
"'  c #116E11",
"]  c #116F11",
"[  c #117011",
"{  c #117111",
"}  c #107210",
"|  c #107310",
" . c #117211",
".. c #107510",
"X. c #107610",
"o. c #107710",
"O. c #107810",
"+. c #008400",
"@. c #008500",
"#. c #008800",
"$. c #008C00",
"%. c #008D00",
"&. c #008E00",
"*. c #0E800E",
"=. c #0E810E",
"-. c #0E820E",
";. c #0D840D",
":. c #0D860D",
">. c #0D870D",
",. c #0E840E",
"<. c #0B8F0B",
"1. c #0D880D",
"2. c #0D890D",
"3. c #0C8A0C",
"4. c #0C8B0C",
"5. c #0D8B0D",
"6. c #0C8C0C",
"7. c #0C8D0C",
"8. c #0D8C0D",
"9. c #0C8E0C",
"0. c #009300",
"q. c #009400",
"w. c #009800",
"e. c #009900",
"r. c #009A00",
"t. c #009B00",
"y. c #009C00",
"u. c #009D00",
"i. c #009E00",
"p. c #009F00",
"a. c #0B900B",
"s. c #0B910B",
"d. c #0B920B",
"f. c #0B930B",
"g. c #0B950B",
"h. c #0A960A",
"j. c #0B970B",
"k. c #0A980A",
"l. c #0A990A",
"z. c #0A9A0A",
"x. c #099C09",
"c. c #099E09",
"v. c #0A9D0A",
"b. c #00A000",
"n. c #00A100",
"m. c #00A400",
"M. c #00A500",
"N. c #00A600",
"B. c #00A800",
"V. c #00AA00",
"C. c #00AC00",
"Z. c #00AD00",
"A. c #00AE00",
"S. c #00AF00",
"D. c #07A807",
"F. c #07AA07",
"G. c #07AB07",
"H. c #07AC07",
"J. c #06AE06",
"K. c #07AE07",
"L. c #09A009",
"P. c #09A109",
"I. c #08A308",
"U. c #08A408",
"Y. c #08A608",
"T. c #08A708",
"R. c #08A808",
"E. c #08A908",
"W. c #00B000",
"Q. c #00B200",
"!. c #00B400",
"~. c #00B500",
"^. c #00B700",
"/. c #06B006",
"(. c #06B106",
"). c #06B206",
"_. c #06B306",
"`. c #05B405",
"'. c #05B505",
"]. c #05B605",
"[. c #05B705",
"{. c #06B406",
"}. c #00B800",
"|. c #01B901",
" X c #00BA00",
".X c #00BB00",
"XX c #01BA01",
"oX c #01BB01",
"OX c #00BC00",
"+X c #00BD00",
"@X c #01BD01",
"#X c #00BE00",
"$X c #00BF00",
"%X c #01BE01",
"&X c #01BF01",
"*X c #03BC03",
"=X c #03BD03",
"-X c #02BE02",
";X c #02BF02",
":X c #03BE03",
">X c #03BF03",
",X c #04B804",
"<X c #04B904",
"1X c #05B805",
"2X c #05B905",
"3X c #05BA05",
"4X c #04BD04",
"5X c #00C000",
"6X c #00C100",
"7X c #00C300",
"8X c #01C201",
"9X c #03C003",
"0X c #03C103",
"qX c #02C302",
"wX c #03C203",
"eX c #03C303",
"rX c #00C400",
"tX c #00C500",
"yX c #01C401",
"uX c #00C700",
"iX c #01C601",
"pX c #02C602",
"aX c #00C800",
"sX c #00C900",
"dX c #01C801",
"fX c #01C901",
"gX c #00CA00",
"hX c #01CA01",
"jX c #01CB01",
"kX c #02C802",
"lX c #02C902",
"zX c #00CC00",
"xX c #00CE00",
"cX c #00CF00",
"vX c #02CC02",
"bX c #00D000",
"nX c #00D100",
"mX c #00D300",
"MX c #00D400",
/* pixels */
"                                                                                                    ",
"                                                                                                    ",
"                                                                                                    ",
"                                                                                                    ",
"                                                                                                    ",
"                                            zXnXzXzX                                                ",
"                                            zXE.8.eX%.                                              ",
"                                          gXMX-.k '.OX%.                                            ",
"                                      nXwXU.<.E k X.x.'.eX.X                                        ",
"                                  nXwX3.b k s s k s s x | D.gX+.                                    ",
"                                nX1X` s s k s k s s s k s x a.eXZ                                   ",
"                                wX` s s k k ` N k E N s k s x x..X                                  ",
"                              nX<.s k s N U.zXO.x D.1X| s s k E OXJ                                 ",
"                              wXE s k x U.V..X>.k '.[.1XE k s s k.M.O                               ",
"                            gXJ.k s s | .X1 n.>.x `.Z i.z.^ | T U.wX-                               ",
"                            zXL.k k s 3.n.$ M.>.k '.q t gXOX.XA.n.L =                               ",
"                            zXx.s k s 3.M.= V.>.k '.t $ 5 3 : $ O .                                 ",
"                            eXU.k s s ` OXq V.>.k '.t . . . . .                                     ",
"                              1Xx s s k g.OXeX>.k '.C .                                             ",
"                              gX| s k s x 8.OXI x '.S .                                             ",
"                              wXU.x s k s k m x k E.OXr.J                                           ",
"                                gX>.k k k s s k k N T L.wXwXi.                                      ",
"                                0.eX3.x s k s k s k s k E 8.OXOX                                    ",
"                                  +.eXD.` x s s k s s k k k ^ K.wX                                  ",
"                                    7 M.wXJ.;.m s s k k s s s b `.n.                                ",
"                                        6 %.eX;.k ` ` x s k s s | wX7                               ",
"                                          $ [.1.k `.gXD.` k k s k J.#.                              ",
"                                            OX:.k '.K %.'.E s k s j.M.+                             ",
"                                            eX:.k '.e @ M.g.k s k -.A.$                             ",
"                            nXnXzXzXgXzX    eX:.x '.t . F '.x k k O.W.=                             ",
"                            gX8.O.| ` '.r.  OX:.k '.t . J 1Xx k s -.V.@                             ",
"                            eX` s s s ,.OX4 [.1.k '.C . r.L.k s s j.r.O                             ",
"                            zX3.s k s x D.W.OX>.k '.C q eXX.s s x `.F .                             ",
"                            .X'.n s s k W `.MX-.k '.[.wX8.k k s X.OX< .                             ",
"                              gX>.s s k s n >.~ f g.D...k s k n `.+.O .                             ",
"                              i.wXX.s s s k s k s k f a k s x L.A.- .                               ",
"                                V.9XO.x s s s k k s k s s ~ E.W.1 . .                               ",
"                                  q.eXK.O.N x s k k n | v.OXr., . .                                 ",
"                                    7 n.OXOXJ.` k g.OX.Xr.7 @ . .                                   ",
"                                        , C OX:.f [.L - O . .                                       ",
"                                            [.:.k '.e . . .                                         ",
"                                            wX8.W 1Xt . .                                           ",
"                                            eXgX4XgXe .                                             ",
"                                              J t 6 =                                               ",
"                                                                                                    ",
"                                                                                                    ",
"                                                                                                    ",
"                                                                                                    ",
"                                                                                                    ",
"                                                                                                    "
};
